<svg width="81" height="81" viewBox="0 0 81 81" fill="none" xmlns="http://www.w3.org/2000/svg">
<path d="M40.3318 15.3139C33.664 15.3139 27.2694 17.9627 22.5546 22.6775C17.8397 27.3923 15.191 33.787 15.191 40.4547V45.4829H20.2191C21.5527 45.4829 22.8316 46.0126 23.7746 46.9556C24.7175 47.8985 25.2473 49.1775 25.2473 50.511V65.5955C25.2473 66.929 24.7175 68.2079 23.7746 69.1509C22.8316 70.0939 21.5527 70.6236 20.2191 70.6236H15.191C13.8574 70.6236 12.5785 70.0939 11.6356 69.1509C10.6926 68.2079 10.1628 66.929 10.1628 65.5955V40.4547C10.1628 36.4929 10.9432 32.5698 12.4593 28.9096C13.9754 25.2493 16.1977 21.9235 18.9991 19.1221C21.8006 16.3206 25.1263 14.0984 28.7866 12.5823C32.4469 11.0661 36.3699 10.2858 40.3318 10.2858C44.2936 10.2858 48.2166 11.0661 51.8769 12.5823C55.5372 14.0984 58.863 16.3206 61.6644 19.1221C64.4658 21.9235 66.6881 25.2493 68.2042 28.9096C69.7203 32.5698 70.5007 36.4929 70.5007 40.4547V65.5955C70.5007 66.929 69.9709 68.2079 69.028 69.1509C68.085 70.0939 66.8061 70.6236 65.4725 70.6236H60.4444C59.1108 70.6236 57.8319 70.0939 56.8889 69.1509C55.946 68.2079 55.4162 66.929 55.4162 65.5955V50.511C55.4162 49.1775 55.946 47.8985 56.8889 46.9556C57.8319 46.0126 59.1108 45.4829 60.4444 45.4829H65.4725V40.4547C65.4725 33.787 62.8238 27.3923 58.109 22.6775C53.3941 17.9627 46.9995 15.3139 40.3318 15.3139Z" fill="white"/>
</svg>
