<svg width="87" height="87" viewBox="0 0 87 87" fill="none" xmlns="http://www.w3.org/2000/svg">
<path d="M68.8571 7.63437H18.8042C14.8357 7.63437 11.6538 10.8163 11.6538 14.7848V57.6873C11.6538 61.6558 14.8715 64.8377 18.8042 64.8377H34.6803C35.7848 64.8377 36.6803 65.7331 36.6803 66.8377V69.9881C36.6803 71.0927 35.7848 71.9881 34.6803 71.9881H31.5298C30.4253 71.9881 29.5298 72.8835 29.5298 73.9881V77.1385C29.5298 78.2431 30.4253 79.1385 31.5298 79.1385H56.1315C57.2361 79.1385 58.1315 78.2431 58.1315 77.1385V73.9881C58.1315 72.8835 57.2361 71.9881 56.1315 71.9881H52.9811C51.8765 71.9881 50.9811 71.0927 50.9811 69.9881V66.8377C50.9811 65.7331 51.8765 64.8377 52.9811 64.8377H68.8571C72.8256 64.8377 76.0076 61.6558 76.0076 57.6873V14.7848C76.0076 10.8163 72.7899 7.63437 68.8571 7.63437ZM68.8571 55.6873C68.8571 56.7918 67.9617 57.6873 66.8571 57.6873H20.8042C19.6997 57.6873 18.8042 56.7919 18.8042 55.6873V16.7848C18.8042 15.6802 19.6997 14.7848 20.8042 14.7848H66.8571C67.9617 14.7848 68.8571 15.6802 68.8571 16.7848V55.6873Z" fill="#050316"/>
</svg>
