<svg width="80" height="78" viewBox="0 0 80 78" fill="none" xmlns="http://www.w3.org/2000/svg">
<g clip-path="url(#clip0_64_1541)">
<path fill-rule="evenodd" clip-rule="evenodd" d="M0.60083 7.29149C0.60083 6.6467 0.85967 6.02831 1.32041 5.57237C1.78114 5.11643 2.40604 4.86029 3.05762 4.86029H7.9712C8.62278 4.86029 9.24768 5.11643 9.70841 5.57237C10.1692 6.02831 10.428 6.6467 10.428 7.29149V19.4475H76.7613C77.4129 19.4475 78.0378 19.7036 78.4985 20.1596C78.9593 20.6155 79.2181 21.2339 79.2181 21.8787V55.9155C79.2181 56.5602 78.9593 57.1786 78.4985 57.6346C78.0378 58.0905 77.4129 58.3467 76.7613 58.3467H10.428V70.5026C10.428 71.1474 10.1692 71.7658 9.70841 72.2218C9.24768 72.6777 8.62278 72.9338 7.9712 72.9338C7.31962 72.9338 6.69472 72.6777 6.23399 72.2218C5.77325 71.7658 5.51441 71.1474 5.51441 70.5026V9.72269H3.05762C2.40604 9.72269 1.78114 9.46654 1.32041 9.01061C0.85967 8.55467 0.60083 7.93628 0.60083 7.29149ZM15.3416 60.7779H32.5391V65.6403C32.5391 66.285 32.2803 66.9034 31.8195 67.3594C31.3588 67.8153 30.7339 68.0714 30.0823 68.0714H17.7984C17.1468 68.0714 16.5219 67.8153 16.0611 67.3594C15.6004 66.9034 15.3416 66.285 15.3416 65.6403V60.7779ZM34.9959 65.6403V60.7779H54.6502V65.6403C54.6502 66.285 54.3914 66.9034 53.9306 67.3594C53.4699 67.8153 52.845 68.0714 52.1934 68.0714H37.4527C36.8011 68.0714 36.1762 67.8153 35.7155 67.3594C35.2547 66.9034 34.9959 66.285 34.9959 65.6403ZM20.2551 38.8971C20.2551 37.9393 20.4458 36.9908 20.8162 36.1059C21.1866 35.221 21.7295 34.417 22.4139 33.7397C23.0983 33.0624 23.9108 32.5252 24.805 32.1587C25.6992 31.7921 26.6576 31.6035 27.6255 31.6035C28.5934 31.6035 29.5518 31.7921 30.446 32.1587C31.3403 32.5252 32.1528 33.0624 32.8372 33.7397C33.5216 34.417 34.0645 35.221 34.4349 36.1059C34.8052 36.9908 34.9959 37.9393 34.9959 38.8971C34.9959 40.8314 34.2194 42.6866 32.8372 44.0544C31.4549 45.4222 29.5803 46.1907 27.6255 46.1907C25.6708 46.1907 23.7961 45.4222 22.4139 44.0544C21.0317 42.6866 20.2551 40.8314 20.2551 38.8971ZM27.6255 26.7411C24.3676 26.7411 21.2431 28.0218 18.9395 30.3015C16.6358 32.5812 15.3416 35.6731 15.3416 38.8971C15.3416 42.121 16.6358 45.213 18.9395 47.4927C21.2431 49.7723 24.3676 51.0531 27.6255 51.0531C30.8834 51.0531 34.0079 49.7723 36.3116 47.4927C38.6153 45.213 39.9095 42.121 39.9095 38.8971C39.9095 35.6731 38.6153 32.5812 36.3116 30.3015C34.0079 28.0218 30.8834 26.7411 27.6255 26.7411ZM57.107 31.6035C55.1523 31.6035 53.2776 32.3719 51.8954 33.7397C50.5131 35.1075 49.7366 36.9627 49.7366 38.8971C49.7366 40.8314 50.5131 42.6866 51.8954 44.0544C53.2776 45.4222 55.1523 46.1907 57.107 46.1907C59.0617 46.1907 60.9364 45.4222 62.3186 44.0544C63.7009 42.6866 64.4774 40.8314 64.4774 38.8971C64.4774 36.9627 63.7009 35.1075 62.3186 33.7397C60.9364 32.3719 59.0617 31.6035 57.107 31.6035ZM44.8231 38.8971C44.8231 35.6731 46.1172 32.5812 48.4209 30.3015C50.7246 28.0218 53.8491 26.7411 57.107 26.7411C60.3649 26.7411 63.4894 28.0218 65.7931 30.3015C68.0967 32.5812 69.391 35.6731 69.3909 38.8971C69.391 42.121 68.0967 45.213 65.7931 47.4927C63.4894 49.7723 60.3649 51.0531 57.107 51.0531C53.8491 51.0531 50.7246 49.7723 48.4209 47.4927C46.1172 45.213 44.8231 42.121 44.8231 38.8971Z" fill="#050316"/>
</g>
<defs>
<clipPath id="clip0_64_1541">
<rect width="78.6173" height="77.7984" fill="white" transform="translate(0.60083 -0.00210571)"/>
</clipPath>
</defs>
</svg>
