<svg width="96" height="96" viewBox="0 0 96 96" fill="none" xmlns="http://www.w3.org/2000/svg">
<g clip-path="url(#clip0_64_1594)">
<path d="M83.5048 29.8418C85.0833 29.8418 86.5971 30.4689 87.7133 31.585C88.8294 32.7012 89.4565 34.215 89.4565 35.7935V65.552C89.4565 67.1304 88.8294 68.6443 87.7133 69.7604C86.5971 70.8766 85.0833 71.5037 83.5048 71.5037H12.0845C10.506 71.5037 8.99221 70.8766 7.87605 69.7604C6.75989 68.6443 6.13284 67.1304 6.13284 65.552V35.7935C6.13284 34.215 6.75989 32.7012 7.87605 31.585C8.99221 30.4689 10.506 29.8418 12.0845 29.8418H83.5048ZM12.0845 23.8901C8.92756 23.8901 5.89989 25.1442 3.66757 27.3766C1.43525 29.6089 0.181152 32.6365 0.181152 35.7935L0.181152 65.552C0.181152 68.7089 1.43525 71.7366 3.66757 73.9689C5.89989 76.2012 8.92756 77.4553 12.0845 77.4553H83.5048C86.6618 77.4553 89.6894 76.2012 91.9218 73.9689C94.1541 71.7366 95.4082 68.7089 95.4082 65.552V35.7935C95.4082 32.6365 94.1541 29.6089 91.9218 27.3766C89.6894 25.1442 86.6618 23.8901 83.5048 23.8901H12.0845Z" fill="#050316"/>
<path d="M77.5531 61.0882C77.5531 60.6936 77.7098 60.3151 77.9889 60.0361C78.2679 59.757 78.6464 59.6003 79.041 59.6003H82.0168C82.4114 59.6003 82.7899 59.757 83.0689 60.0361C83.348 60.3151 83.5047 60.6936 83.5047 61.0882V64.064C83.5047 64.4587 83.348 64.8371 83.0689 65.1162C82.7899 65.3952 82.4114 65.552 82.0168 65.552H79.041C78.6464 65.552 78.2679 65.3952 77.9889 65.1162C77.7098 64.8371 77.5531 64.4587 77.5531 64.064V61.0882ZM77.5531 49.1848C77.5531 48.7902 77.7098 48.4117 77.9889 48.1327C78.2679 47.8537 78.6464 47.6969 79.041 47.6969H82.0168C82.4114 47.6969 82.7899 47.8537 83.0689 48.1327C83.348 48.4117 83.5047 48.7902 83.5047 49.1848V52.1607C83.5047 52.5553 83.348 52.9337 83.0689 53.2128C82.7899 53.4918 82.4114 53.6486 82.0168 53.6486H79.041C78.6464 53.6486 78.2679 53.4918 77.9889 53.2128C77.7098 52.9337 77.5531 52.5553 77.5531 52.1607V49.1848ZM47.7946 49.1848C47.7946 48.7902 47.9514 48.4117 48.2304 48.1327C48.5094 47.8537 48.8879 47.6969 49.2825 47.6969H52.2584C52.653 47.6969 53.0315 47.8537 53.3105 48.1327C53.5895 48.4117 53.7463 48.7902 53.7463 49.1848V52.1607C53.7463 52.5553 53.5895 52.9337 53.3105 53.2128C53.0315 53.4918 52.653 53.6486 52.2584 53.6486H49.2825C48.8879 53.6486 48.5094 53.4918 48.2304 53.2128C47.9514 52.9337 47.7946 52.5553 47.7946 52.1607V49.1848ZM59.698 49.1848C59.698 48.7902 59.8547 48.4117 60.1338 48.1327C60.4128 47.8537 60.7913 47.6969 61.1859 47.6969H70.1134C70.5081 47.6969 70.8865 47.8537 71.1656 48.1327C71.4446 48.4117 71.6014 48.7902 71.6014 49.1848V52.1607C71.6014 52.5553 71.4446 52.9337 71.1656 53.2128C70.8865 53.4918 70.5081 53.6486 70.1134 53.6486H61.1859C60.7913 53.6486 60.4128 53.4918 60.1338 53.2128C59.8547 52.9337 59.698 52.5553 59.698 52.1607V49.1848ZM65.6497 61.0882C65.6497 60.6936 65.8064 60.3151 66.0855 60.0361C66.3645 59.757 66.743 59.6003 67.1376 59.6003H70.1134C70.5081 59.6003 70.8865 59.757 71.1656 60.0361C71.4446 60.3151 71.6014 60.6936 71.6014 61.0882V64.064C71.6014 64.4587 71.4446 64.8371 71.1656 65.1162C70.8865 65.3952 70.5081 65.552 70.1134 65.552H67.1376C66.743 65.552 66.3645 65.3952 66.0855 65.1162C65.8064 64.8371 65.6497 64.4587 65.6497 64.064V61.0882ZM35.8912 49.1848C35.8912 48.7902 36.048 48.4117 36.327 48.1327C36.6061 47.8537 36.9845 47.6969 37.3792 47.6969H40.355C40.7496 47.6969 41.1281 47.8537 41.4071 48.1327C41.6862 48.4117 41.8429 48.7902 41.8429 49.1848V52.1607C41.8429 52.5553 41.6862 52.9337 41.4071 53.2128C41.1281 53.4918 40.7496 53.6486 40.355 53.6486H37.3792C36.9845 53.6486 36.6061 53.4918 36.327 53.2128C36.048 52.9337 35.8912 52.5553 35.8912 52.1607V49.1848ZM23.9879 49.1848C23.9879 48.7902 24.1446 48.4117 24.4237 48.1327C24.7027 47.8537 25.0812 47.6969 25.4758 47.6969H28.4516C28.8462 47.6969 29.2247 47.8537 29.5037 48.1327C29.7828 48.4117 29.9395 48.7902 29.9395 49.1848V52.1607C29.9395 52.5553 29.7828 52.9337 29.5037 53.2128C29.2247 53.4918 28.8462 53.6486 28.4516 53.6486H25.4758C25.0812 53.6486 24.7027 53.4918 24.4237 53.2128C24.1446 52.9337 23.9879 52.5553 23.9879 52.1607V49.1848ZM12.0845 49.1848C12.0845 48.7902 12.2412 48.4117 12.5203 48.1327C12.7993 47.8537 13.1778 47.6969 13.5724 47.6969H16.5482C16.9429 47.6969 17.3213 47.8537 17.6004 48.1327C17.8794 48.4117 18.0362 48.7902 18.0362 49.1848V52.1607C18.0362 52.5553 17.8794 52.9337 17.6004 53.2128C17.3213 53.4918 16.9429 53.6486 16.5482 53.6486H13.5724C13.1778 53.6486 12.7993 53.4918 12.5203 53.2128C12.2412 52.9337 12.0845 52.5553 12.0845 52.1607V49.1848ZM77.5531 37.2814C77.5531 36.8868 77.7098 36.5084 77.9889 36.2293C78.2679 35.9503 78.6464 35.7935 79.041 35.7935H82.0168C82.4114 35.7935 82.7899 35.9503 83.0689 36.2293C83.348 36.5084 83.5047 36.8868 83.5047 37.2814V40.2573C83.5047 40.6519 83.348 41.0304 83.0689 41.3094C82.7899 41.5884 82.4114 41.7452 82.0168 41.7452H79.041C78.6464 41.7452 78.2679 41.5884 77.9889 41.3094C77.7098 41.0304 77.5531 40.6519 77.5531 40.2573V37.2814ZM65.6497 37.2814C65.6497 36.8868 65.8064 36.5084 66.0855 36.2293C66.3645 35.9503 66.743 35.7935 67.1376 35.7935H70.1134C70.5081 35.7935 70.8865 35.9503 71.1656 36.2293C71.4446 36.5084 71.6014 36.8868 71.6014 37.2814V40.2573C71.6014 40.6519 71.4446 41.0304 71.1656 41.3094C70.8865 41.5884 70.5081 41.7452 70.1134 41.7452H67.1376C66.743 41.7452 66.3645 41.5884 66.0855 41.3094C65.8064 41.0304 65.6497 40.6519 65.6497 40.2573V37.2814ZM53.7463 37.2814C53.7463 36.8868 53.9031 36.5084 54.1821 36.2293C54.4611 35.9503 54.8396 35.7935 55.2342 35.7935H58.2101C58.6047 35.7935 58.9831 35.9503 59.2622 36.2293C59.5412 36.5084 59.698 36.8868 59.698 37.2814V40.2573C59.698 40.6519 59.5412 41.0304 59.2622 41.3094C58.9831 41.5884 58.6047 41.7452 58.2101 41.7452H55.2342C54.8396 41.7452 54.4611 41.5884 54.1821 41.3094C53.9031 41.0304 53.7463 40.6519 53.7463 40.2573V37.2814ZM41.8429 37.2814C41.8429 36.8868 41.9997 36.5084 42.2787 36.2293C42.5578 35.9503 42.9362 35.7935 43.3308 35.7935H46.3067C46.7013 35.7935 47.0798 35.9503 47.3588 36.2293C47.6378 36.5084 47.7946 36.8868 47.7946 37.2814V40.2573C47.7946 40.6519 47.6378 41.0304 47.3588 41.3094C47.0798 41.5884 46.7013 41.7452 46.3067 41.7452H43.3308C42.9362 41.7452 42.5578 41.5884 42.2787 41.3094C41.9997 41.0304 41.8429 40.6519 41.8429 40.2573V37.2814ZM29.9395 37.2814C29.9395 36.8868 30.0963 36.5084 30.3753 36.2293C30.6544 35.9503 31.0328 35.7935 31.4275 35.7935H34.4033C34.7979 35.7935 35.1764 35.9503 35.4554 36.2293C35.7345 36.5084 35.8912 36.8868 35.8912 37.2814V40.2573C35.8912 40.6519 35.7345 41.0304 35.4554 41.3094C35.1764 41.5884 34.7979 41.7452 34.4033 41.7452H31.4275C31.0328 41.7452 30.6544 41.5884 30.3753 41.3094C30.0963 41.0304 29.9395 40.6519 29.9395 40.2573V37.2814ZM12.0845 37.2814C12.0845 36.8868 12.2412 36.5084 12.5203 36.2293C12.7993 35.9503 13.1778 35.7935 13.5724 35.7935H22.4999C22.8946 35.7935 23.273 35.9503 23.552 36.2293C23.8311 36.5084 23.9879 36.8868 23.9879 37.2814V40.2573C23.9879 40.6519 23.8311 41.0304 23.552 41.3094C23.273 41.5884 22.8946 41.7452 22.4999 41.7452H13.5724C13.1778 41.7452 12.7993 41.5884 12.5203 41.3094C12.2412 41.0304 12.0845 40.6519 12.0845 40.2573V37.2814ZM12.0845 61.0882C12.0845 60.6936 12.2412 60.3151 12.5203 60.0361C12.7993 59.757 13.1778 59.6003 13.5724 59.6003H16.5482C16.9429 59.6003 17.3213 59.757 17.6004 60.0361C17.8794 60.3151 18.0362 60.6936 18.0362 61.0882V64.064C18.0362 64.4587 17.8794 64.8371 17.6004 65.1162C17.3213 65.3952 16.9429 65.552 16.5482 65.552H13.5724C13.1778 65.552 12.7993 65.3952 12.5203 65.1162C12.2412 64.8371 12.0845 64.4587 12.0845 64.064V61.0882ZM23.9879 61.0882C23.9879 60.6936 24.1446 60.3151 24.4237 60.0361C24.7027 59.757 25.0812 59.6003 25.4758 59.6003H58.2101C58.6047 59.6003 58.9831 59.757 59.2622 60.0361C59.5412 60.3151 59.698 60.6936 59.698 61.0882V64.064C59.698 64.4587 59.5412 64.8371 59.2622 65.1162C58.9831 65.3952 58.6047 65.552 58.2101 65.552H25.4758C25.0812 65.552 24.7027 65.3952 24.4237 65.1162C24.1446 64.8371 23.9879 64.4587 23.9879 64.064V61.0882Z" fill="#050316"/>
</g>
<defs>
<clipPath id="clip0_64_1594">
<rect width="95.227" height="95.227" fill="white" transform="translate(0.181152 0.083374)"/>
</clipPath>
</defs>
</svg>
